<svg xmlns="http://www.w3.org/2000/svg" viewBox="-9.5 0 1440 564"><style>@font-face{font-family:Calluna Sans;src:url(/fonts/r{{sans-roman-hash}}.woff2)format("woff2"),url(/fonts/r{{sans-roman-hash}}.woff)format("woff")}.bar{fill:#b4aaaa}.label{font:40px 'Calluna Sans',sans-serif;font-variant-numeric:oldstyle-nums;fill:#b4aaaa;text-anchor:middle}</style><line x1="0" y1="0" x2="0" y2="504" stroke="#eee" stroke-width="3.2"/><line x1="100" y1="0" x2="100" y2="504" stroke="#eee" stroke-width="3.2"/><line x1="200" y1="0" x2="200" y2="504" stroke="#eee" stroke-width="3.2"/><line x1="300" y1="0" x2="300" y2="504" stroke="#eee" stroke-width="3.2"/><line x1="400" y1="0" x2="400" y2="504" stroke="#eee" stroke-width="3.2"/><line x1="500" y1="0" x2="500" y2="504" stroke="#eee" stroke-width="3.2"/><line x1="600" y1="0" x2="600" y2="504" stroke="#eee" stroke-width="3.2"/><line x1="700" y1="0" x2="700" y2="504" stroke="#eee" stroke-width="3.2"/><line x1="800" y1="0" x2="800" y2="504" stroke="#eee" stroke-width="3.2"/><line x1="900" y1="0" x2="900" y2="504" stroke="#eee" stroke-width="3.2"/><line x1="1000" y1="0" x2="1000" y2="504" stroke="#eee" stroke-width="3.2"/><line x1="1100" y1="0" x2="1100" y2="504" stroke="#eee" stroke-width="3.2"/><line x1="1200" y1="0" x2="1200" y2="504" stroke="#eee" stroke-width="3.2"/><line x1="1300" y1="0" x2="1300" y2="504" stroke="#eee" stroke-width="3.2"/><line x1="1400" y1="0" x2="1400" y2="504" stroke="#eee" stroke-width="3.2"/><rect x="0" y="203" width="8" height="14" class="bar"/><rect x="1" y="175" width="4" height="14" class="bar"/><rect x="3" y="147" width="5" height="14" class="bar"/><rect x="4" y="119" width="5" height="14" class="bar"/><rect x="5" y="63" width="5" height="14" class="bar"/><rect x="5" y="91" width="5" height="14" class="bar"/><rect x="6" y="35" width="4" height="14" class="bar"/><rect x="6" y="175" width="5" height="14" class="bar"/><rect x="7" y="7" width="6" height="14" class="bar"/><rect x="9" y="147" width="6" height="14" class="bar"/><rect x="10" y="203" width="27" height="14" class="bar"/><rect x="12" y="7" width="95" height="14" class="bar"/><rect x="12" y="91" width="82" height="14" class="bar"/><rect x="12" y="119" width="5" height="14" class="bar"/><rect x="12" y="175" width="5" height="14" class="bar"/><rect x="15" y="63" width="8" height="14" class="bar"/><rect x="17" y="147" width="45" height="14" class="bar"/><rect x="19" y="35" width="368" height="14" fill="#c35"/><rect x="19" y="119" width="43" height="14" class="bar"/><rect x="21" y="175" width="62" height="14" class="bar"/><rect x="25" y="63" width="24" height="14" class="bar"/><rect x="38" y="203" width="6" height="14" class="bar"/><rect x="49" y="203" width="4" height="14" class="bar"/><rect x="53" y="63" width="5" height="14" class="bar"/><rect x="54" y="203" width="30" height="14" class="bar"/><rect x="65" y="63" width="5" height="14" class="bar"/><rect x="65" y="119" width="9" height="14" class="bar"/><rect x="65" y="147" width="28" height="14" class="bar"/><rect x="70" y="63" width="5" height="14" class="bar"/><rect x="75" y="63" width="4" height="14" class="bar"/><rect x="77" y="119" width="13" height="14" class="bar"/><rect x="79" y="63" width="4" height="14" class="bar"/><rect x="83" y="175" width="4" height="14" class="bar"/><rect x="86" y="63" width="15" height="14" class="bar"/><rect x="86" y="175" width="8" height="14" class="bar"/><rect x="87" y="203" width="89" height="14" class="bar"/><rect x="90" y="119" width="7" height="14" class="bar"/><rect x="97" y="147" width="33" height="14" class="bar"/><rect x="97" y="175" width="36" height="14" class="bar"/><rect x="99" y="91" width="265" height="14" class="bar"/><rect x="102" y="119" width="9" height="14" class="bar"/><rect x="104" y="63" width="16" height="14" class="bar"/><rect x="112" y="7" width="29" height="14" class="bar"/><rect x="114" y="119" width="18" height="14" class="bar"/><rect x="125" y="63" width="79" height="14" class="bar"/><rect x="135" y="119" width="9" height="14" class="bar"/><rect x="135" y="147" width="9" height="14" class="bar"/><rect x="137" y="175" width="65" height="14" class="bar"/><rect x="147" y="119" width="19" height="14" class="bar"/><rect x="151" y="7" width="4" height="14" class="bar"/><rect x="155" y="7" width="4" height="14" class="bar"/><rect x="157" y="147" width="4" height="14" class="bar"/><rect x="159" y="7" width="4" height="14" class="bar"/><rect x="160" y="147" width="4" height="14" class="bar"/><rect x="162" y="7" width="66" height="14" class="bar"/><rect x="163" y="147" width="122" height="14" class="bar"/><rect x="166" y="119" width="20" height="14" class="bar"/><rect x="176" y="203" width="9" height="14" class="bar"/><rect x="191" y="119" width="219" height="14" class="bar"/><rect x="199" y="203" width="39" height="14" class="bar"/><rect x="203" y="175" width="47" height="14" class="bar"/><rect x="207" y="63" width="33" height="14" class="bar"/><rect x="232" y="7" width="17" height="14" class="bar"/><rect x="237" y="203" width="23" height="14" class="bar"/><rect x="245" y="63" width="19" height="14" class="bar"/><rect x="253" y="175" width="15" height="14" class="bar"/><rect x="260" y="7" width="39" height="14" class="bar"/><rect x="266" y="203" width="18" height="14" class="bar"/><rect x="268" y="63" width="75" height="14" class="bar"/><rect x="279" y="175" width="89" height="14" class="bar"/><rect x="290" y="147" width="33" height="14" class="bar"/><rect x="327" y="7" width="62" height="14" class="bar"/><rect x="345" y="63" width="11" height="14" class="bar"/><rect x="371" y="147" width="84" height="14" class="bar"/><rect x="390" y="7" width="350" height="14" fill="#c35"/><rect x="413" y="35" width="63" height="14" class="bar"/><rect x="413" y="63" width="31" height="14" class="bar"/><rect x="413" y="91" width="12" height="14" class="bar"/><rect x="413" y="175" width="35" height="14" class="bar"/><rect x="413" y="203" width="89" height="14" class="bar"/><rect x="446" y="63" width="27" height="14" class="bar"/><rect x="446" y="91" width="39" height="14" class="bar"/><rect x="446" y="119" width="19" height="14" class="bar"/><rect x="452" y="175" width="19" height="14" class="bar"/><rect x="455" y="147" width="4" height="14" class="bar"/><rect x="460" y="147" width="83" height="14" class="bar"/><rect x="469" y="119" width="32" height="14" class="bar"/><rect x="477" y="63" width="11" height="14" class="bar"/><rect x="477" y="175" width="70" height="14" class="bar"/><rect x="489" y="35" width="88" height="14" class="bar"/><rect x="502" y="119" width="4" height="14" class="bar"/><rect x="505" y="203" width="22" height="14" class="bar"/><rect x="545" y="147" width="81" height="14" class="bar"/><rect x="550" y="63" width="93" height="14" class="bar"/><rect x="580" y="35" width="10" height="14" class="bar"/><rect x="580" y="203" width="59" height="14" class="bar"/><rect x="593" y="119" width="183" height="14" class="bar"/><rect x="647" y="63" width="87" height="14" class="bar"/><rect x="737" y="63" width="47" height="14" class="bar"/><rect x="737" y="91" width="75" height="14" class="bar"/><rect x="745" y="147" width="81" height="14" fill="#c35"/><rect x="787" y="119" width="46" height="14" class="bar"/><rect x="828" y="35" width="21" height="14" class="bar"/><rect x="828" y="203" width="306" height="14" fill="#c35"/><rect x="837" y="175" width="103" height="14" class="bar"/><rect x="851" y="7" width="30" height="14" class="bar"/><rect x="883" y="119" width="5" height="14" class="bar"/><rect x="943" y="91" width="43" height="14" class="bar"/><rect x="943" y="119" width="43" height="14" class="bar"/><rect x="989" y="63" width="14" height="14" class="bar"/><rect x="989" y="147" width="11" height="14" class="bar"/><rect x="989" y="175" width="16" height="14" class="bar"/><rect x="1007" y="175" width="66" height="14" class="bar"/><rect x="1075" y="175" width="21" height="14" class="bar"/><rect x="1136" y="7" width="44" height="14" fill="#c35"/><rect x="1183" y="7" width="11" height="14" fill="#c35"/><rect x="1196" y="7" width="16" height="14" fill="#c35"/><rect x="1196" y="175" width="8" height="14" class="bar"/><rect x="1214" y="147" width="139" height="14" fill="#c35"/><rect x="1355" y="7" width="9" height="14" fill="#c35"/><rect x="1368" y="91" width="12" height="14" fill="#c35"/><rect x="1382" y="91" width="15" height="14" fill="#c35"/><rect x="1400" y="91" width="12" height="14" fill="#c35"/><rect x="1412" y="91" width="5" height="14" fill="#c35"/><rect x="0" y="483" width="27" height="14" class="bar"/><rect x="1" y="455" width="4" height="14" class="bar"/><rect x="5" y="343" width="9" height="14" class="bar"/><rect x="5" y="371" width="62" height="14" class="bar"/><rect x="5" y="399" width="5" height="14" class="bar"/><rect x="5" y="427" width="6" height="14" class="bar"/><rect x="7" y="315" width="5" height="14" class="bar"/><rect x="7" y="455" width="6" height="14" class="bar"/><rect x="10" y="287" width="4" height="14" class="bar"/><rect x="10" y="399" width="4" height="14" class="bar"/><rect x="11" y="315" width="9" height="14" class="bar"/><rect x="14" y="287" width="5" height="14" class="bar"/><rect x="14" y="343" width="18" height="14" class="bar"/><rect x="14" y="399" width="6" height="14" class="bar"/><rect x="14" y="427" width="28" height="14" class="bar"/><rect x="14" y="455" width="46" height="14" class="bar"/><rect x="20" y="287" width="78" height="14" class="bar"/><rect x="21" y="315" width="5" height="14" class="bar"/><rect x="23" y="399" width="8" height="14" class="bar"/><rect x="25" y="315" width="122" height="14" class="bar"/><rect x="28" y="483" width="16" height="14" class="bar"/><rect x="32" y="399" width="4" height="14" class="bar"/><rect x="33" y="343" width="90" height="14" fill="#c35"/><rect x="36" y="399" width="5" height="14" class="bar"/><rect x="41" y="399" width="8" height="14" class="bar"/><rect x="42" y="427" width="43" height="14" class="bar"/><rect x="45" y="483" width="8" height="14" class="bar"/><rect x="50" y="399" width="66" height="14" class="bar"/><rect x="54" y="483" width="30" height="14" class="bar"/><rect x="61" y="455" width="6" height="14" class="bar"/><rect x="67" y="455" width="33" height="14" class="bar"/><rect x="68" y="371" width="4" height="14" class="bar"/><rect x="72" y="371" width="11" height="14" class="bar"/><rect x="83" y="371" width="8" height="14" class="bar"/><rect x="84" y="483" width="9" height="14" class="bar"/><rect x="86" y="427" width="29" height="14" class="bar"/><rect x="90" y="371" width="19" height="14" class="bar"/><rect x="102" y="287" width="4" height="14" class="bar"/><rect x="102" y="483" width="4" height="14" class="bar"/><rect x="107" y="455" width="8" height="14" class="bar"/><rect x="107" y="483" width="4" height="14" class="bar"/><rect x="109" y="287" width="82" height="14" class="bar"/><rect x="116" y="371" width="4" height="14" class="bar"/><rect x="116" y="399" width="4" height="14" class="bar"/><rect x="118" y="427" width="4" height="14" class="bar"/><rect x="119" y="371" width="4" height="14" class="bar"/><rect x="119" y="483" width="4" height="14" class="bar"/><rect x="120" y="399" width="5" height="14" class="bar"/><rect x="121" y="455" width="17" height="14" class="bar"/><rect x="122" y="427" width="24" height="14" class="bar"/><rect x="123" y="343" width="4" height="14" fill="#c35"/><rect x="123" y="483" width="4" height="14" class="bar"/><rect x="124" y="399" width="4" height="14" class="bar"/><rect x="125" y="371" width="5" height="14" class="bar"/><rect x="127" y="343" width="10" height="14" class="bar"/><rect x="128" y="483" width="19" height="14" class="bar"/><rect x="129" y="371" width="40" height="14" fill="#c35"/><rect x="129" y="399" width="5" height="14" class="bar"/><rect x="136" y="343" width="4" height="14" class="bar"/><rect x="138" y="399" width="5" height="14" class="bar"/><rect x="139" y="343" width="5" height="14" class="bar"/><rect x="139" y="455" width="5" height="14" class="bar"/><rect x="147" y="399" width="58" height="14" class="bar"/><rect x="147" y="483" width="93" height="14" class="bar"/><rect x="148" y="315" width="4" height="14" class="bar"/><rect x="149" y="427" width="17" height="14" class="bar"/><rect x="149" y="455" width="88" height="14" class="bar"/><rect x="150" y="343" width="4" height="14" class="bar"/><rect x="151" y="315" width="14" height="14" class="bar"/><rect x="154" y="343" width="35" height="14" class="bar"/><rect x="167" y="427" width="5" height="14" class="bar"/><rect x="169" y="371" width="4" height="14" fill="#c35"/><rect x="172" y="315" width="4" height="14" class="bar"/><rect x="173" y="427" width="4" height="14" class="bar"/><rect x="176" y="315" width="15" height="14" class="bar"/><rect x="176" y="427" width="9" height="14" class="bar"/><rect x="177" y="371" width="8" height="14" class="bar"/><rect x="186" y="427" width="4" height="14" class="bar"/><rect x="189" y="343" width="4" height="14" class="bar"/><rect x="189" y="427" width="13" height="14" class="bar"/><rect x="190" y="371" width="35" height="14" class="bar"/><rect x="193" y="343" width="19" height="14" class="bar"/><rect x="195" y="287" width="264" height="14" class="bar"/><rect x="195" y="315" width="17" height="14" class="bar"/><rect x="203" y="427" width="23" height="14" class="bar"/><rect x="210" y="399" width="130" height="14" class="bar"/><rect x="212" y="315" width="4" height="14" class="bar"/><rect x="216" y="343" width="80" height="14" class="bar"/><rect x="217" y="315" width="4" height="14" class="bar"/><rect x="221" y="315" width="4" height="14" class="bar"/><rect x="225" y="315" width="39" height="14" class="bar"/><rect x="230" y="371" width="64" height="14" class="bar"/><rect x="231" y="427" width="17" height="14" class="bar"/><rect x="238" y="455" width="47" height="14" class="bar"/><rect x="241" y="483" width="4" height="14" class="bar"/><rect x="248" y="427" width="4" height="14" class="bar"/><rect x="250" y="483" width="4" height="14" class="bar"/><rect x="253" y="427" width="4" height="14" class="bar"/><rect x="253" y="483" width="129" height="14" fill="#c35"/><rect x="257" y="427" width="4" height="14" class="bar"/><rect x="261" y="427" width="39" height="14" class="bar"/><rect x="268" y="315" width="4" height="14" class="bar"/><rect x="272" y="315" width="4" height="14" class="bar"/><rect x="276" y="315" width="35" height="14" class="bar"/><rect x="285" y="455" width="4" height="14" class="bar"/><rect x="297" y="343" width="4" height="14" class="bar"/><rect x="298" y="371" width="41" height="14" class="bar"/><rect x="298" y="455" width="95" height="14" class="bar"/><rect x="300" y="427" width="4" height="14" class="bar"/><rect x="301" y="343" width="11" height="14" class="bar"/><rect x="311" y="315" width="4" height="14" class="bar"/><rect x="315" y="427" width="73" height="14" class="bar"/><rect x="344" y="315" width="31" height="14" class="bar"/><rect x="344" y="343" width="51" height="14" class="bar"/><rect x="344" y="371" width="65" height="14" class="bar"/><rect x="344" y="399" width="12" height="14" class="bar"/><rect x="357" y="399" width="4" height="14" class="bar"/><rect x="362" y="399" width="63" height="14" class="bar"/><rect x="376" y="315" width="4" height="14" class="bar"/><rect x="383" y="315" width="4" height="14" fill="#c35"/><rect x="387" y="315" width="15" height="14" class="bar"/><rect x="387" y="483" width="9" height="14" class="bar"/><rect x="389" y="427" width="5" height="14" class="bar"/><rect x="394" y="427" width="57" height="14" fill="#c35"/><rect x="394" y="455" width="4" height="14" class="bar"/><rect x="395" y="483" width="4" height="14" class="bar"/><rect x="396" y="343" width="4" height="14" class="bar"/><rect x="399" y="483" width="18" height="14" class="bar"/><rect x="400" y="343" width="35" height="14" class="bar"/><rect x="400" y="455" width="106" height="14" class="bar"/><rect x="406" y="315" width="94" height="14" class="bar"/><rect x="410" y="371" width="4" height="14" class="bar"/><rect x="415" y="371" width="40" height="14" class="bar"/><rect x="421" y="483" width="44" height="14" class="bar"/><rect x="424" y="399" width="4" height="14" class="bar"/><rect x="429" y="399" width="121" height="14" class="bar"/><rect x="435" y="343" width="4" height="14" class="bar"/><rect x="439" y="343" width="18" height="14" class="bar"/><rect x="455" y="371" width="4" height="14" class="bar"/><rect x="455" y="427" width="35" height="14" class="bar"/><rect x="458" y="287" width="4" height="14" class="bar"/><rect x="458" y="343" width="4" height="14" class="bar"/><rect x="460" y="371" width="104" height="14" fill="#c35"/><rect x="462" y="343" width="56" height="14" class="bar"/><rect x="463" y="287" width="10" height="14" class="bar"/><rect x="466" y="483" width="4" height="14" class="bar"/><rect x="470" y="483" width="38" height="14" class="bar"/><rect x="478" y="287" width="13" height="14" class="bar"/><rect x="490" y="427" width="4" height="14" class="bar"/><rect x="491" y="287" width="4" height="14" class="bar"/><rect x="495" y="287" width="36" height="14" class="bar"/><rect x="495" y="427" width="8" height="14" class="bar"/><rect x="499" y="315" width="4" height="14" class="bar"/><rect x="504" y="315" width="26" height="14" class="bar"/><rect x="506" y="427" width="19" height="14" class="bar"/><rect x="506" y="455" width="4" height="14" class="bar"/><rect x="509" y="483" width="4" height="14" class="bar"/><rect x="512" y="455" width="20" height="14" class="bar"/><rect x="513" y="483" width="32" height="14" class="bar"/><rect x="517" y="343" width="4" height="14" class="bar"/><rect x="522" y="343" width="5" height="14" class="bar"/><rect x="530" y="287" width="4" height="14" class="bar"/><rect x="531" y="315" width="4" height="14" class="bar"/><rect x="531" y="427" width="29" height="14" class="bar"/><rect x="532" y="343" width="32" height="14" class="bar"/><rect x="534" y="287" width="17" height="14" class="bar"/><rect x="535" y="315" width="82" height="14" class="bar"/><rect x="535" y="455" width="27" height="14" class="bar"/><rect x="546" y="483" width="4" height="14" class="bar"/><rect x="550" y="399" width="4" height="14" class="bar"/><rect x="551" y="483" width="12" height="14" class="bar"/><rect x="552" y="287" width="4" height="14" class="bar"/><rect x="556" y="287" width="77" height="14" class="bar"/><rect x="556" y="399" width="87" height="14" class="bar"/><rect x="560" y="427" width="4" height="14" class="bar"/><rect x="563" y="455" width="4" height="14" class="bar"/><rect x="563" y="483" width="4" height="14" class="bar"/><rect x="564" y="343" width="4" height="14" class="bar"/><rect x="564" y="371" width="4" height="14" fill="#c35"/><rect x="566" y="427" width="21" height="14" class="bar"/><rect x="568" y="455" width="39" height="14" class="bar"/><rect x="568" y="483" width="26" height="14" fill="#c35"/><rect x="590" y="371" width="4" height="14" class="bar"/><rect x="594" y="483" width="4" height="14" fill="#c35"/><rect x="597" y="343" width="14" height="14" fill="#c35"/><rect x="611" y="455" width="7" height="14" class="bar"/><rect x="611" y="483" width="30" height="14" class="bar"/><rect x="615" y="371" width="17" height="14" fill="#c35"/><rect x="618" y="455" width="4" height="14" class="bar"/><rect x="621" y="343" width="45" height="14" class="bar"/><rect x="622" y="315" width="96" height="14" class="bar"/><rect x="622" y="455" width="70" height="14" class="bar"/><rect x="633" y="427" width="4" height="14" class="bar"/><rect x="636" y="287" width="14" height="14" fill="#c35"/><rect x="637" y="427" width="45" height="14" class="bar"/><rect x="640" y="483" width="4" height="14" class="bar"/><rect x="644" y="399" width="4" height="14" class="bar"/><rect x="648" y="371" width="57" height="14" class="bar"/><rect x="648" y="399" width="102" height="14" class="bar"/><rect x="653" y="287" width="9" height="14" fill="#c35"/><rect x="666" y="287" width="4" height="14" class="bar"/><rect x="666" y="483" width="34" height="14" fill="#c35"/><rect x="682" y="343" width="4" height="14" class="bar"/><rect x="686" y="287" width="9" height="14" class="bar"/><rect x="693" y="343" width="5" height="14" class="bar"/><rect x="699" y="427" width="86" height="14" class="bar"/><rect x="699" y="455" width="20" height="14" class="bar"/><rect x="704" y="287" width="8" height="14" fill="#c35"/><rect x="704" y="343" width="14" height="14" class="bar"/><rect x="704" y="483" width="25" height="14" class="bar"/><rect x="705" y="371" width="4" height="14" class="bar"/><rect x="711" y="371" width="71" height="14" class="bar"/><rect x="713" y="287" width="4" height="14" fill="#c35"/><rect x="718" y="287" width="45" height="14" fill="#c35"/><rect x="718" y="315" width="5" height="14" class="bar"/><rect x="719" y="343" width="4" height="14" class="bar"/><rect x="720" y="455" width="5" height="14" class="bar"/><rect x="724" y="315" width="80" height="14" class="bar"/><rect x="724" y="343" width="31" height="14" class="bar"/><rect x="725" y="455" width="80" height="14" class="bar"/><rect x="730" y="483" width="4" height="14" class="bar"/><rect x="735" y="483" width="29" height="14" class="bar"/><rect x="750" y="399" width="5" height="14" class="bar"/><rect x="754" y="343" width="4" height="14" class="bar"/><rect x="756" y="399" width="44" height="14" class="bar"/><rect x="763" y="343" width="4" height="14" fill="#c35"/><rect x="763" y="483" width="4" height="14" class="bar"/><rect x="767" y="287" width="6" height="14" class="bar"/><rect x="767" y="343" width="84" height="14" fill="#c35"/><rect x="768" y="483" width="16" height="14" class="bar"/><rect x="774" y="287" width="4" height="14" class="bar"/><rect x="782" y="287" width="4" height="14" class="bar"/><rect x="784" y="371" width="4" height="14" class="bar"/><rect x="785" y="427" width="4" height="14" class="bar"/><rect x="801" y="287" width="4" height="14" class="bar"/><rect x="805" y="427" width="81" height="14" class="bar"/><rect x="808" y="315" width="10" height="14" class="bar"/><rect x="822" y="455" width="29" height="14" class="bar"/><rect x="856" y="287" width="6" height="14" class="bar"/><rect x="856" y="343" width="30" height="14" fill="#c35"/><rect x="856" y="371" width="13" height="14" class="bar"/><rect x="889" y="315" width="45" height="14" class="bar"/><rect x="889" y="343" width="22" height="14" fill="#c35"/><rect x="889" y="399" width="45" height="14" class="bar"/><rect x="915" y="427" width="80" height="14" fill="#c35"/><rect x="915" y="455" width="14" height="14" class="bar"/><rect x="929" y="483" width="4" height="14" class="bar"/><rect x="932" y="287" width="23" height="14" class="bar"/><rect x="932" y="343" width="11" height="14" class="bar"/><rect x="933" y="483" width="4" height="14" class="bar"/><rect x="938" y="315" width="16" height="14" class="bar"/><rect x="938" y="399" width="17" height="14" class="bar"/><rect x="938" y="483" width="14" height="14" class="bar"/><rect x="944" y="455" width="5" height="14" class="bar"/><rect x="951" y="455" width="4" height="14" class="bar"/><rect x="958" y="315" width="65" height="14" class="bar"/><rect x="998" y="371" width="59" height="14" fill="#c35"/><rect x="1027" y="343" width="20" height="14" class="bar"/><rect x="1059" y="371" width="10" height="14" fill="#c35"/><rect x="1072" y="343" width="11" height="14" fill="#c35"/><rect x="1087" y="483" width="9" height="14" fill="#c35"/><rect x="1100" y="287" width="9" height="14" fill="#c35"/><rect x="1110" y="399" width="4" height="14" fill="#c35"/><rect x="1113" y="427" width="12" height="14" fill="#c35"/><rect x="1126" y="483" width="6" height="14" fill="#c35"/><text x="0" y="550" class="label">0</text><text x="100" y="550" class="label">10</text><text x="200" y="550" class="label">20</text><text x="300" y="550" class="label">30</text><text x="400" y="550" class="label">40</text><text x="500" y="550" class="label">50</text><text x="600" y="550" class="label">60</text><text x="700" y="550" class="label">70</text><text x="800" y="550" class="label">80</text><text x="900" y="550" class="label">90</text><text x="1000" y="550" class="label">100</text><text x="1100" y="550" class="label">110</text><text x="1200" y="550" class="label">120</text><text x="1300" y="550" class="label">130</text><text x="1400" y="550" class="label">140</text></svg>