<svg xmlns="http://www.w3.org/2000/svg" viewBox="-0.95 0 144 56.4"><style>@font-face{font-family:Calluna Sans;src:url(/fonts/r{{sans-roman-hash}}.woff2)format("woff2"),url(/fonts/r{{sans-roman-hash}}.woff)format("woff")}.bar{fill:#b4aaaa}.label{font:4px 'Calluna Sans',sans-serif;font-variant-numeric:oldstyle-nums;fill:#b4aaaa;text-anchor:middle}</style><line x1="0" y1="0" x2="0" y2="50.4" stroke="#eee" stroke-width="0.32"/><line x1="10" y1="0" x2="10" y2="50.4" stroke="#eee" stroke-width="0.32"/><line x1="20" y1="0" x2="20" y2="50.4" stroke="#eee" stroke-width="0.32"/><line x1="30" y1="0" x2="30" y2="50.4" stroke="#eee" stroke-width="0.32"/><line x1="40" y1="0" x2="40" y2="50.4" stroke="#eee" stroke-width="0.32"/><line x1="50" y1="0" x2="50" y2="50.4" stroke="#eee" stroke-width="0.32"/><line x1="60" y1="0" x2="60" y2="50.4" stroke="#eee" stroke-width="0.32"/><line x1="70" y1="0" x2="70" y2="50.4" stroke="#eee" stroke-width="0.32"/><line x1="80" y1="0" x2="80" y2="50.4" stroke="#eee" stroke-width="0.32"/><line x1="90" y1="0" x2="90" y2="50.4" stroke="#eee" stroke-width="0.32"/><line x1="100" y1="0" x2="100" y2="50.4" stroke="#eee" stroke-width="0.32"/><line x1="110" y1="0" x2="110" y2="50.4" stroke="#eee" stroke-width="0.32"/><line x1="120" y1="0" x2="120" y2="50.4" stroke="#eee" stroke-width="0.32"/><line x1="130" y1="0" x2="130" y2="50.4" stroke="#eee" stroke-width="0.32"/><line x1="140" y1="0" x2="140" y2="50.4" stroke="#eee" stroke-width="0.32"/><rect x="0.0" y="3.5" width="0.8" height="1.4" class="bar"/><rect x="0.1" y="6.3" width="0.4" height="1.4" class="bar"/><rect x="0.3" y="9.1" width="0.5" height="1.4" class="bar"/><rect x="0.4" y="11.9" width="0.5" height="1.4" class="bar"/><rect x="0.5" y="14.7" width="0.5" height="1.4" class="bar"/><rect x="0.5" y="17.5" width="0.5" height="1.4" class="bar"/><rect x="0.6" y="6.3" width="0.5" height="1.4" class="bar"/><rect x="0.6" y="20.3" width="0.4" height="1.4" class="bar"/><rect x="0.7" y="0.7" width="0.6" height="1.4" class="bar"/><rect x="0.9" y="9.1" width="0.6" height="1.4" class="bar"/><rect x="1.0" y="3.5" width="2.7" height="1.4" class="bar"/><rect x="1.2" y="0.7" width="9.5" height="1.4" class="bar"/><rect x="1.2" y="6.3" width="0.5" height="1.4" class="bar"/><rect x="1.2" y="11.9" width="0.5" height="1.4" class="bar"/><rect x="1.2" y="14.7" width="8.2" height="1.4" class="bar"/><rect x="1.5" y="17.5" width="0.8" height="1.4" class="bar"/><rect x="1.7" y="9.1" width="4.5" height="1.4" class="bar"/><rect x="1.9" y="11.9" width="4.3" height="1.4" class="bar"/><rect x="1.9" y="20.3" width="36.8" height="1.4" fill="#c35"/><rect x="2.1" y="6.3" width="6.2" height="1.4" class="bar"/><rect x="2.5" y="17.5" width="2.4" height="1.4" class="bar"/><rect x="3.8" y="3.5" width="0.6" height="1.4" class="bar"/><rect x="4.9" y="3.5" width="0.4" height="1.4" class="bar"/><rect x="5.3" y="17.5" width="0.5" height="1.4" class="bar"/><rect x="5.4" y="3.5" width="3.0" height="1.4" class="bar"/><rect x="6.5" y="9.1" width="2.8" height="1.4" class="bar"/><rect x="6.5" y="11.9" width="0.9" height="1.4" class="bar"/><rect x="6.5" y="17.5" width="0.5" height="1.4" class="bar"/><rect x="7.0" y="17.5" width="0.5" height="1.4" class="bar"/><rect x="7.5" y="17.5" width="0.4" height="1.4" class="bar"/><rect x="7.7" y="11.9" width="1.3" height="1.4" class="bar"/><rect x="7.9" y="17.5" width="0.4" height="1.4" class="bar"/><rect x="8.3" y="6.3" width="0.4" height="1.4" class="bar"/><rect x="8.6" y="6.3" width="0.8" height="1.4" class="bar"/><rect x="8.6" y="17.5" width="1.5" height="1.4" class="bar"/><rect x="8.7" y="3.5" width="8.9" height="1.4" class="bar"/><rect x="9.0" y="11.9" width="0.7" height="1.4" class="bar"/><rect x="9.7" y="6.3" width="3.6" height="1.4" class="bar"/><rect x="9.7" y="9.1" width="3.3" height="1.4" class="bar"/><rect x="9.9" y="14.7" width="26.5" height="1.4" class="bar"/><rect x="10.2" y="11.9" width="0.9" height="1.4" class="bar"/><rect x="10.4" y="17.5" width="1.6" height="1.4" class="bar"/><rect x="11.2" y="0.7" width="2.9" height="1.4" class="bar"/><rect x="11.4" y="11.9" width="1.8" height="1.4" class="bar"/><rect x="12.5" y="17.5" width="7.9" height="1.4" class="bar"/><rect x="13.5" y="9.1" width="0.9" height="1.4" class="bar"/><rect x="13.5" y="11.9" width="0.9" height="1.4" class="bar"/><rect x="13.7" y="6.3" width="6.5" height="1.4" class="bar"/><rect x="14.7" y="11.9" width="1.9" height="1.4" class="bar"/><rect x="15.1" y="0.7" width="0.4" height="1.4" class="bar"/><rect x="15.5" y="0.7" width="0.4" height="1.4" class="bar"/><rect x="15.7" y="9.1" width="0.4" height="1.4" class="bar"/><rect x="15.9" y="0.7" width="0.4" height="1.4" class="bar"/><rect x="16.0" y="9.1" width="0.4" height="1.4" class="bar"/><rect x="16.2" y="0.7" width="6.6" height="1.4" class="bar"/><rect x="16.3" y="9.1" width="12.2" height="1.4" class="bar"/><rect x="16.6" y="11.9" width="2.0" height="1.4" class="bar"/><rect x="17.6" y="3.5" width="0.9" height="1.4" class="bar"/><rect x="19.1" y="11.9" width="21.9" height="1.4" class="bar"/><rect x="19.9" y="3.5" width="3.9" height="1.4" class="bar"/><rect x="20.3" y="6.3" width="4.7" height="1.4" class="bar"/><rect x="20.7" y="17.5" width="3.3" height="1.4" class="bar"/><rect x="23.2" y="0.7" width="1.7" height="1.4" class="bar"/><rect x="23.7" y="3.5" width="2.3" height="1.4" class="bar"/><rect x="24.5" y="17.5" width="1.9" height="1.4" class="bar"/><rect x="25.3" y="6.3" width="1.5" height="1.4" class="bar"/><rect x="26.0" y="0.7" width="3.9" height="1.4" class="bar"/><rect x="26.6" y="3.5" width="1.8" height="1.4" class="bar"/><rect x="26.8" y="17.5" width="7.5" height="1.4" class="bar"/><rect x="27.9" y="6.3" width="8.9" height="1.4" class="bar"/><rect x="29.0" y="9.1" width="3.3" height="1.4" class="bar"/><rect x="32.7" y="0.7" width="6.2" height="1.4" class="bar"/><rect x="34.5" y="17.5" width="1.1" height="1.4" class="bar"/><rect x="37.1" y="9.1" width="8.4" height="1.4" class="bar"/><rect x="39.0" y="0.7" width="35.0" height="1.4" fill="#c35"/><rect x="41.3" y="3.5" width="8.9" height="1.4" class="bar"/><rect x="41.3" y="6.3" width="3.5" height="1.4" class="bar"/><rect x="41.3" y="14.7" width="1.2" height="1.4" class="bar"/><rect x="41.3" y="17.5" width="3.1" height="1.4" class="bar"/><rect x="41.3" y="20.3" width="6.3" height="1.4" class="bar"/><rect x="44.6" y="11.9" width="1.9" height="1.4" class="bar"/><rect x="44.6" y="14.7" width="3.9" height="1.4" class="bar"/><rect x="44.6" y="17.5" width="2.7" height="1.4" class="bar"/><rect x="45.2" y="6.3" width="1.9" height="1.4" class="bar"/><rect x="45.5" y="9.1" width="0.4" height="1.4" class="bar"/><rect x="46.0" y="9.1" width="8.3" height="1.4" class="bar"/><rect x="46.9" y="11.9" width="3.2" height="1.4" class="bar"/><rect x="47.7" y="6.3" width="7.0" height="1.4" class="bar"/><rect x="47.7" y="17.5" width="1.1" height="1.4" class="bar"/><rect x="48.9" y="20.3" width="8.8" height="1.4" class="bar"/><rect x="50.2" y="11.9" width="0.4" height="1.4" class="bar"/><rect x="50.5" y="3.5" width="2.2" height="1.4" class="bar"/><rect x="54.5" y="9.1" width="8.1" height="1.4" class="bar"/><rect x="55.0" y="17.5" width="9.3" height="1.4" class="bar"/><rect x="58.0" y="3.5" width="5.9" height="1.4" class="bar"/><rect x="58.0" y="20.3" width="1.0" height="1.4" class="bar"/><rect x="59.3" y="11.9" width="18.3" height="1.4" class="bar"/><rect x="64.7" y="17.5" width="8.7" height="1.4" class="bar"/><rect x="73.7" y="14.7" width="7.5" height="1.4" class="bar"/><rect x="73.7" y="17.5" width="4.7" height="1.4" class="bar"/><rect x="74.5" y="9.1" width="8.1" height="1.4" fill="#c35"/><rect x="78.7" y="11.9" width="4.6" height="1.4" class="bar"/><rect x="82.8" y="3.5" width="30.6" height="1.4" fill="#c35"/><rect x="82.8" y="20.3" width="2.1" height="1.4" class="bar"/><rect x="83.7" y="6.3" width="10.3" height="1.4" class="bar"/><rect x="85.1" y="0.7" width="3.0" height="1.4" class="bar"/><rect x="88.3" y="11.9" width="0.5" height="1.4" class="bar"/><rect x="94.3" y="11.9" width="4.3" height="1.4" class="bar"/><rect x="94.3" y="14.7" width="4.3" height="1.4" class="bar"/><rect x="98.9" y="6.3" width="1.6" height="1.4" class="bar"/><rect x="98.9" y="9.1" width="1.1" height="1.4" class="bar"/><rect x="98.9" y="17.5" width="1.4" height="1.4" class="bar"/><rect x="100.7" y="6.3" width="6.6" height="1.4" class="bar"/><rect x="107.5" y="6.3" width="2.1" height="1.4" class="bar"/><rect x="113.6" y="0.7" width="4.4" height="1.4" fill="#c35"/><rect x="118.3" y="0.7" width="1.1" height="1.4" fill="#c35"/><rect x="119.6" y="0.7" width="1.6" height="1.4" fill="#c35"/><rect x="119.6" y="6.3" width="0.8" height="1.4" class="bar"/><rect x="121.4" y="9.1" width="13.9" height="1.4" fill="#c35"/><rect x="135.5" y="0.7" width="0.9" height="1.4" fill="#c35"/><rect x="136.8" y="14.7" width="1.2" height="1.4" fill="#c35"/><rect x="138.2" y="14.7" width="1.5" height="1.4" fill="#c35"/><rect x="140.0" y="14.7" width="1.2" height="1.4" fill="#c35"/><rect x="141.2" y="14.7" width="0.5" height="1.4" fill="#c35"/><rect x="0.0" y="31.5" width="2.7" height="1.4" class="bar"/><rect x="0.1" y="34.3" width="0.4" height="1.4" class="bar"/><rect x="0.5" y="37.1" width="0.6" height="1.4" class="bar"/><rect x="0.5" y="39.9" width="0.5" height="1.4" class="bar"/><rect x="0.5" y="42.7" width="6.2" height="1.4" class="bar"/><rect x="0.5" y="45.5" width="0.9" height="1.4" class="bar"/><rect x="0.7" y="34.3" width="0.6" height="1.4" class="bar"/><rect x="0.7" y="48.3" width="0.5" height="1.4" class="bar"/><rect x="1.0" y="28.7" width="0.4" height="1.4" class="bar"/><rect x="1.0" y="39.9" width="0.4" height="1.4" class="bar"/><rect x="1.1" y="48.3" width="0.9" height="1.4" class="bar"/><rect x="1.4" y="28.7" width="0.5" height="1.4" class="bar"/><rect x="1.4" y="34.3" width="4.6" height="1.4" class="bar"/><rect x="1.4" y="37.1" width="2.8" height="1.4" class="bar"/><rect x="1.4" y="39.9" width="0.6" height="1.4" class="bar"/><rect x="1.4" y="45.5" width="1.8" height="1.4" class="bar"/><rect x="2.0" y="28.7" width="7.8" height="1.4" class="bar"/><rect x="2.1" y="48.3" width="0.5" height="1.4" class="bar"/><rect x="2.3" y="39.9" width="0.8" height="1.4" class="bar"/><rect x="2.5" y="48.3" width="12.2" height="1.4" class="bar"/><rect x="2.8" y="31.5" width="1.6" height="1.4" class="bar"/><rect x="3.2" y="39.9" width="0.4" height="1.4" class="bar"/><rect x="3.3" y="45.5" width="9.0" height="1.4" fill="#c35"/><rect x="3.6" y="39.9" width="0.5" height="1.4" class="bar"/><rect x="4.1" y="39.9" width="0.8" height="1.4" class="bar"/><rect x="4.2" y="37.1" width="4.3" height="1.4" class="bar"/><rect x="4.5" y="31.5" width="0.8" height="1.4" class="bar"/><rect x="5.0" y="39.9" width="6.6" height="1.4" class="bar"/><rect x="5.4" y="31.5" width="3.0" height="1.4" class="bar"/><rect x="6.1" y="34.3" width="0.6" height="1.4" class="bar"/><rect x="6.7" y="34.3" width="3.3" height="1.4" class="bar"/><rect x="6.8" y="42.7" width="0.4" height="1.4" class="bar"/><rect x="7.2" y="42.7" width="1.1" height="1.4" class="bar"/><rect x="8.3" y="42.7" width="0.8" height="1.4" class="bar"/><rect x="8.4" y="31.5" width="0.9" height="1.4" class="bar"/><rect x="8.6" y="37.1" width="2.9" height="1.4" class="bar"/><rect x="9.0" y="42.7" width="1.9" height="1.4" class="bar"/><rect x="10.2" y="28.7" width="0.4" height="1.4" class="bar"/><rect x="10.2" y="31.5" width="0.4" height="1.4" class="bar"/><rect x="10.7" y="31.5" width="0.4" height="1.4" class="bar"/><rect x="10.7" y="34.3" width="0.8" height="1.4" class="bar"/><rect x="10.9" y="28.7" width="8.2" height="1.4" class="bar"/><rect x="11.6" y="39.9" width="0.4" height="1.4" class="bar"/><rect x="11.6" y="42.7" width="0.4" height="1.4" class="bar"/><rect x="11.8" y="37.1" width="0.4" height="1.4" class="bar"/><rect x="11.9" y="31.5" width="0.4" height="1.4" class="bar"/><rect x="11.9" y="42.7" width="0.4" height="1.4" class="bar"/><rect x="12.0" y="39.9" width="0.5" height="1.4" class="bar"/><rect x="12.1" y="34.3" width="1.7" height="1.4" class="bar"/><rect x="12.2" y="37.1" width="2.4" height="1.4" class="bar"/><rect x="12.3" y="31.5" width="0.4" height="1.4" class="bar"/><rect x="12.3" y="45.5" width="0.4" height="1.4" fill="#c35"/><rect x="12.4" y="39.9" width="0.4" height="1.4" class="bar"/><rect x="12.5" y="42.7" width="0.5" height="1.4" class="bar"/><rect x="12.7" y="45.5" width="1.0" height="1.4" class="bar"/><rect x="12.8" y="31.5" width="1.9" height="1.4" class="bar"/><rect x="12.9" y="39.9" width="0.5" height="1.4" class="bar"/><rect x="12.9" y="42.7" width="4.0" height="1.4" fill="#c35"/><rect x="13.6" y="45.5" width="0.4" height="1.4" class="bar"/><rect x="13.8" y="39.9" width="0.5" height="1.4" class="bar"/><rect x="13.9" y="34.3" width="0.5" height="1.4" class="bar"/><rect x="13.9" y="45.5" width="0.5" height="1.4" class="bar"/><rect x="14.7" y="31.5" width="9.3" height="1.4" class="bar"/><rect x="14.7" y="39.9" width="5.8" height="1.4" class="bar"/><rect x="14.8" y="48.3" width="0.4" height="1.4" class="bar"/><rect x="14.9" y="34.3" width="8.8" height="1.4" class="bar"/><rect x="14.9" y="37.1" width="1.7" height="1.4" class="bar"/><rect x="15.0" y="45.5" width="0.4" height="1.4" class="bar"/><rect x="15.1" y="48.3" width="1.4" height="1.4" class="bar"/><rect x="15.4" y="45.5" width="3.5" height="1.4" class="bar"/><rect x="16.7" y="37.1" width="0.5" height="1.4" class="bar"/><rect x="16.9" y="42.7" width="0.4" height="1.4" fill="#c35"/><rect x="17.2" y="48.3" width="0.4" height="1.4" class="bar"/><rect x="17.3" y="37.1" width="0.4" height="1.4" class="bar"/><rect x="17.6" y="37.1" width="0.9" height="1.4" class="bar"/><rect x="17.6" y="48.3" width="1.5" height="1.4" class="bar"/><rect x="17.7" y="42.7" width="0.8" height="1.4" class="bar"/><rect x="18.6" y="37.1" width="0.4" height="1.4" class="bar"/><rect x="18.9" y="37.1" width="1.3" height="1.4" class="bar"/><rect x="18.9" y="45.5" width="0.4" height="1.4" class="bar"/><rect x="19.0" y="42.7" width="3.5" height="1.4" class="bar"/><rect x="19.3" y="45.5" width="1.9" height="1.4" class="bar"/><rect x="19.5" y="28.7" width="26.4" height="1.4" class="bar"/><rect x="19.5" y="48.3" width="1.7" height="1.4" class="bar"/><rect x="20.3" y="37.1" width="2.3" height="1.4" class="bar"/><rect x="21.0" y="39.9" width="13.0" height="1.4" class="bar"/><rect x="21.2" y="48.3" width="0.4" height="1.4" class="bar"/><rect x="21.6" y="45.5" width="8.0" height="1.4" class="bar"/><rect x="21.7" y="48.3" width="0.4" height="1.4" class="bar"/><rect x="22.1" y="48.3" width="0.4" height="1.4" class="bar"/><rect x="22.5" y="48.3" width="3.9" height="1.4" class="bar"/><rect x="23.0" y="42.7" width="6.4" height="1.4" class="bar"/><rect x="23.1" y="37.1" width="1.7" height="1.4" class="bar"/><rect x="23.8" y="34.3" width="4.7" height="1.4" class="bar"/><rect x="24.1" y="31.5" width="0.4" height="1.4" class="bar"/><rect x="24.8" y="37.1" width="0.4" height="1.4" class="bar"/><rect x="25.0" y="31.5" width="0.4" height="1.4" class="bar"/><rect x="25.3" y="31.5" width="12.9" height="1.4" fill="#c35"/><rect x="25.3" y="37.1" width="0.4" height="1.4" class="bar"/><rect x="25.7" y="37.1" width="0.4" height="1.4" class="bar"/><rect x="26.1" y="37.1" width="3.9" height="1.4" class="bar"/><rect x="26.8" y="48.3" width="0.4" height="1.4" class="bar"/><rect x="27.2" y="48.3" width="0.4" height="1.4" class="bar"/><rect x="27.6" y="48.3" width="3.5" height="1.4" class="bar"/><rect x="28.5" y="34.3" width="0.4" height="1.4" class="bar"/><rect x="29.7" y="45.5" width="0.4" height="1.4" class="bar"/><rect x="29.8" y="34.3" width="9.5" height="1.4" class="bar"/><rect x="29.8" y="42.7" width="4.1" height="1.4" class="bar"/><rect x="30.0" y="37.1" width="0.4" height="1.4" class="bar"/><rect x="30.1" y="45.5" width="1.1" height="1.4" class="bar"/><rect x="31.1" y="48.3" width="0.4" height="1.4" class="bar"/><rect x="31.5" y="37.1" width="7.3" height="1.4" class="bar"/><rect x="34.4" y="39.9" width="1.2" height="1.4" class="bar"/><rect x="34.4" y="42.7" width="6.5" height="1.4" class="bar"/><rect x="34.4" y="45.5" width="5.1" height="1.4" class="bar"/><rect x="34.4" y="48.3" width="3.1" height="1.4" class="bar"/><rect x="35.7" y="39.9" width="0.4" height="1.4" class="bar"/><rect x="36.2" y="39.9" width="6.3" height="1.4" class="bar"/><rect x="37.6" y="48.3" width="0.4" height="1.4" class="bar"/><rect x="38.3" y="48.3" width="0.4" height="1.4" fill="#c35"/><rect x="38.7" y="31.5" width="0.9" height="1.4" class="bar"/><rect x="38.7" y="48.3" width="1.5" height="1.4" class="bar"/><rect x="38.9" y="37.1" width="0.5" height="1.4" class="bar"/><rect x="39.4" y="34.3" width="0.4" height="1.4" class="bar"/><rect x="39.4" y="37.1" width="5.7" height="1.4" fill="#c35"/><rect x="39.5" y="31.5" width="0.4" height="1.4" class="bar"/><rect x="39.6" y="45.5" width="0.4" height="1.4" class="bar"/><rect x="39.9" y="31.5" width="1.8" height="1.4" class="bar"/><rect x="40.0" y="34.3" width="10.6" height="1.4" class="bar"/><rect x="40.0" y="45.5" width="3.5" height="1.4" class="bar"/><rect x="40.6" y="48.3" width="9.4" height="1.4" class="bar"/><rect x="41.0" y="42.7" width="0.4" height="1.4" class="bar"/><rect x="41.5" y="42.7" width="4.0" height="1.4" class="bar"/><rect x="42.1" y="31.5" width="4.4" height="1.4" class="bar"/><rect x="42.4" y="39.9" width="0.4" height="1.4" class="bar"/><rect x="42.9" y="39.9" width="12.1" height="1.4" class="bar"/><rect x="43.5" y="45.5" width="0.4" height="1.4" class="bar"/><rect x="43.9" y="45.5" width="1.8" height="1.4" class="bar"/><rect x="45.5" y="37.1" width="3.5" height="1.4" class="bar"/><rect x="45.5" y="42.7" width="0.4" height="1.4" class="bar"/><rect x="45.8" y="28.7" width="0.4" height="1.4" class="bar"/><rect x="45.8" y="45.5" width="0.4" height="1.4" class="bar"/><rect x="46.0" y="42.7" width="10.4" height="1.4" fill="#c35"/><rect x="46.2" y="45.5" width="5.6" height="1.4" class="bar"/><rect x="46.3" y="28.7" width="1.0" height="1.4" class="bar"/><rect x="46.6" y="31.5" width="0.4" height="1.4" class="bar"/><rect x="47.0" y="31.5" width="3.8" height="1.4" class="bar"/><rect x="47.8" y="28.7" width="1.3" height="1.4" class="bar"/><rect x="49.0" y="37.1" width="0.4" height="1.4" class="bar"/><rect x="49.1" y="28.7" width="0.4" height="1.4" class="bar"/><rect x="49.5" y="28.7" width="3.6" height="1.4" class="bar"/><rect x="49.5" y="37.1" width="0.8" height="1.4" class="bar"/><rect x="49.9" y="48.3" width="0.4" height="1.4" class="bar"/><rect x="50.4" y="48.3" width="2.6" height="1.4" class="bar"/><rect x="50.6" y="34.3" width="0.4" height="1.4" class="bar"/><rect x="50.6" y="37.1" width="1.9" height="1.4" class="bar"/><rect x="50.9" y="31.5" width="0.4" height="1.4" class="bar"/><rect x="51.2" y="34.3" width="2.0" height="1.4" class="bar"/><rect x="51.3" y="31.5" width="3.2" height="1.4" class="bar"/><rect x="51.7" y="45.5" width="0.4" height="1.4" class="bar"/><rect x="52.2" y="45.5" width="0.5" height="1.4" class="bar"/><rect x="53.0" y="28.7" width="0.4" height="1.4" class="bar"/><rect x="53.1" y="37.1" width="2.9" height="1.4" class="bar"/><rect x="53.1" y="48.3" width="0.4" height="1.4" class="bar"/><rect x="53.2" y="45.5" width="3.2" height="1.4" class="bar"/><rect x="53.4" y="28.7" width="1.7" height="1.4" class="bar"/><rect x="53.5" y="34.3" width="2.7" height="1.4" class="bar"/><rect x="53.5" y="48.3" width="8.2" height="1.4" class="bar"/><rect x="54.6" y="31.5" width="0.4" height="1.4" class="bar"/><rect x="55.0" y="39.9" width="0.4" height="1.4" class="bar"/><rect x="55.1" y="31.5" width="1.2" height="1.4" class="bar"/><rect x="55.2" y="28.7" width="0.4" height="1.4" class="bar"/><rect x="55.6" y="28.7" width="7.7" height="1.4" class="bar"/><rect x="55.6" y="39.9" width="8.7" height="1.4" class="bar"/><rect x="56.0" y="37.1" width="0.4" height="1.4" class="bar"/><rect x="56.3" y="31.5" width="0.4" height="1.4" class="bar"/><rect x="56.3" y="34.3" width="0.4" height="1.4" class="bar"/><rect x="56.4" y="42.7" width="0.4" height="1.4" fill="#c35"/><rect x="56.4" y="45.5" width="0.4" height="1.4" class="bar"/><rect x="56.6" y="37.1" width="2.1" height="1.4" class="bar"/><rect x="56.8" y="31.5" width="2.6" height="1.4" fill="#c35"/><rect x="56.8" y="34.3" width="3.9" height="1.4" class="bar"/><rect x="59.0" y="42.7" width="0.4" height="1.4" class="bar"/><rect x="59.4" y="31.5" width="0.4" height="1.4" fill="#c35"/><rect x="59.7" y="45.5" width="1.4" height="1.4" fill="#c35"/><rect x="61.1" y="31.5" width="3.0" height="1.4" class="bar"/><rect x="61.1" y="34.3" width="0.7" height="1.4" class="bar"/><rect x="61.5" y="42.7" width="1.7" height="1.4" fill="#c35"/><rect x="61.8" y="34.3" width="0.4" height="1.4" class="bar"/><rect x="62.1" y="45.5" width="4.5" height="1.4" class="bar"/><rect x="62.2" y="34.3" width="7.0" height="1.4" class="bar"/><rect x="62.2" y="48.3" width="9.6" height="1.4" class="bar"/><rect x="63.3" y="37.1" width="0.4" height="1.4" class="bar"/><rect x="63.6" y="28.7" width="1.4" height="1.4" fill="#c35"/><rect x="63.7" y="37.1" width="4.5" height="1.4" class="bar"/><rect x="64.0" y="31.5" width="0.4" height="1.4" class="bar"/><rect x="64.4" y="39.9" width="0.4" height="1.4" class="bar"/><rect x="64.8" y="39.9" width="10.2" height="1.4" class="bar"/><rect x="64.8" y="42.7" width="5.7" height="1.4" class="bar"/><rect x="65.3" y="28.7" width="0.9" height="1.4" fill="#c35"/><rect x="66.6" y="28.7" width="0.4" height="1.4" class="bar"/><rect x="66.6" y="31.5" width="3.4" height="1.4" fill="#c35"/><rect x="68.2" y="45.5" width="0.4" height="1.4" class="bar"/><rect x="68.6" y="28.7" width="0.9" height="1.4" class="bar"/><rect x="69.3" y="45.5" width="0.5" height="1.4" class="bar"/><rect x="69.9" y="34.3" width="2.0" height="1.4" class="bar"/><rect x="69.9" y="37.1" width="8.6" height="1.4" class="bar"/><rect x="70.4" y="28.7" width="0.8" height="1.4" fill="#c35"/><rect x="70.4" y="31.5" width="2.5" height="1.4" class="bar"/><rect x="70.4" y="45.5" width="1.4" height="1.4" class="bar"/><rect x="70.5" y="42.7" width="0.4" height="1.4" class="bar"/><rect x="71.1" y="42.7" width="7.1" height="1.4" class="bar"/><rect x="71.3" y="28.7" width="0.4" height="1.4" fill="#c35"/><rect x="71.8" y="28.7" width="4.5" height="1.4" fill="#c35"/><rect x="71.8" y="48.3" width="0.5" height="1.4" class="bar"/><rect x="71.9" y="45.5" width="0.4" height="1.4" class="bar"/><rect x="72.0" y="34.3" width="0.5" height="1.4" class="bar"/><rect x="72.4" y="45.5" width="3.1" height="1.4" class="bar"/><rect x="72.4" y="48.3" width="8.0" height="1.4" class="bar"/><rect x="72.5" y="34.3" width="8.0" height="1.4" class="bar"/><rect x="73.0" y="31.5" width="0.4" height="1.4" class="bar"/><rect x="73.5" y="31.5" width="2.9" height="1.4" class="bar"/><rect x="75.0" y="39.9" width="0.5" height="1.4" class="bar"/><rect x="75.4" y="45.5" width="0.4" height="1.4" class="bar"/><rect x="75.6" y="39.9" width="4.4" height="1.4" class="bar"/><rect x="76.3" y="31.5" width="0.4" height="1.4" class="bar"/><rect x="76.3" y="45.5" width="0.4" height="1.4" fill="#c35"/><rect x="76.7" y="28.7" width="0.6" height="1.4" class="bar"/><rect x="76.7" y="45.5" width="8.4" height="1.4" fill="#c35"/><rect x="76.8" y="31.5" width="1.6" height="1.4" class="bar"/><rect x="77.4" y="28.7" width="0.4" height="1.4" class="bar"/><rect x="78.2" y="28.7" width="0.4" height="1.4" class="bar"/><rect x="78.4" y="42.7" width="0.4" height="1.4" class="bar"/><rect x="78.5" y="37.1" width="0.4" height="1.4" class="bar"/><rect x="80.1" y="28.7" width="0.4" height="1.4" class="bar"/><rect x="80.5" y="37.1" width="8.1" height="1.4" class="bar"/><rect x="80.8" y="48.3" width="1.0" height="1.4" class="bar"/><rect x="82.2" y="34.3" width="2.9" height="1.4" class="bar"/><rect x="85.6" y="28.7" width="0.6" height="1.4" class="bar"/><rect x="85.6" y="42.7" width="1.3" height="1.4" class="bar"/><rect x="85.6" y="45.5" width="3.0" height="1.4" fill="#c35"/><rect x="88.9" y="39.9" width="4.5" height="1.4" class="bar"/><rect x="88.9" y="45.5" width="2.2" height="1.4" fill="#c35"/><rect x="88.9" y="48.3" width="4.5" height="1.4" class="bar"/><rect x="91.5" y="34.3" width="1.4" height="1.4" class="bar"/><rect x="91.5" y="37.1" width="8.0" height="1.4" fill="#c35"/><rect x="92.9" y="31.5" width="0.4" height="1.4" class="bar"/><rect x="93.2" y="28.7" width="2.3" height="1.4" class="bar"/><rect x="93.2" y="45.5" width="1.1" height="1.4" class="bar"/><rect x="93.3" y="31.5" width="0.4" height="1.4" class="bar"/><rect x="93.8" y="31.5" width="1.4" height="1.4" class="bar"/><rect x="93.8" y="39.9" width="1.7" height="1.4" class="bar"/><rect x="93.8" y="48.3" width="1.6" height="1.4" class="bar"/><rect x="94.4" y="34.3" width="0.5" height="1.4" class="bar"/><rect x="95.1" y="34.3" width="0.4" height="1.4" class="bar"/><rect x="95.8" y="48.3" width="6.5" height="1.4" class="bar"/><rect x="99.8" y="42.7" width="5.9" height="1.4" fill="#c35"/><rect x="102.7" y="45.5" width="2.0" height="1.4" class="bar"/><rect x="105.9" y="42.7" width="1.0" height="1.4" fill="#c35"/><rect x="107.2" y="45.5" width="1.1" height="1.4" fill="#c35"/><rect x="108.7" y="31.5" width="0.9" height="1.4" fill="#c35"/><rect x="110.0" y="28.7" width="0.9" height="1.4" fill="#c35"/><rect x="111.0" y="39.9" width="0.4" height="1.4" fill="#c35"/><rect x="111.3" y="37.1" width="1.2" height="1.4" fill="#c35"/><rect x="112.6" y="31.5" width="0.6" height="1.4" fill="#c35"/><text x="0" y="55" class="label">0</text><text x="10" y="55" class="label">10</text><text x="20" y="55" class="label">20</text><text x="30" y="55" class="label">30</text><text x="40" y="55" class="label">40</text><text x="50" y="55" class="label">50</text><text x="60" y="55" class="label">60</text><text x="70" y="55" class="label">70</text><text x="80" y="55" class="label">80</text><text x="90" y="55" class="label">90</text><text x="100" y="55" class="label">100</text><text x="110" y="55" class="label">110</text><text x="120" y="55" class="label">120</text><text x="130" y="55" class="label">130</text><text x="140" y="55" class="label">140</text></svg>