<?xml version="1.0" encoding="UTF-8" standalone="no"?>
<svg
   width="684"
   height="212"
   viewBox="0 0 180.97498 56.091661"
   xmlns="http://www.w3.org/2000/svg"
   xmlns:svg="http://www.w3.org/2000/svg">
<style>
@font-face{font-family:Calluna Sans;src:url(/fonts/r{{sans-roman-hash}}.woff2)format("woff2")}
text{font:5px 'Calluna Sans',sans-serif;fill:#456;text-anchor:middle}
path{stroke:#789;opacity:0.37;stroke-width:0.317}
</style>
    <text x="90.492523" y="3.7563612" ><tspan x="90.492523" y="3.7563612">Any</tspan></text>
    <text x="90.598091" y="54.593433" ><tspan x="90.598091" y="54.593433">Void</tspan></text>
    <text x="29.744106" y="29.270571" ><tspan x="29.744106" y="29.270571">Int</tspan></text>
    <text x="48.223991" y="29.270571" ><tspan x="48.223991" y="29.270571">Bool</tspan></text>
    <text x="69.911148" y="29.270571" ><tspan x="69.911148" y="29.270571" >String</tspan></text>
    <text x="11.962989" y="29.270571" ><tspan x="11.962989" y="29.270571" >Null</tspan></text>
    <text x="136.34593" y="41.785286" ><tspan x="136.34593" y="41.785286" >List[Void]</tspan></text>
    <text x="115.2598" y="29.270571" ><tspan x="115.2598" y="29.270571" >List[Int]</tspan></text>
    <text x="136.34593" y="16.733322" ><tspan x="136.34593" y="16.733322" >List[Any]</tspan></text>
    <text x="155.63391" y="29.270571" ><tspan x="155.63391" y="29.270571" >List[Bool]</tspan></text>
    <path d="m 125.14204,38.18976 -6.54577,-6.730433" />
    <path d="m 147.34271,38.08968 7.40137,-6.03484" />
    <path d="m 126.18725,17.448833 -7.60114,6.762584" />
    <path d="m 146.7374,17.691842 8.03988,6.222431" />
    <path d="M 125.5603,43.148056 100.13318,52.28657" />
    <path d="M 70.29561,31.543387 85.214183,47.862742" />
    <path d="M 48.723436,31.383747 83.36635,49.346985" />
    <path d="m 30.285405,31.352251 51.71761,19.709176" />
    <path d="M 12.176536,31.543387 81.391348,53.285011" />
    <path d="M 70.562092,23.507799 85.346687,6.7324341" />
    <path d="M 48.627094,24.441249 84.047474,5.4606842" />
    <path d="M 30.378658,24.197311 83.246791,3.8951208" />
    <path d="M 12.596789,23.933302 82.93408,2.1700638" />
    <path d="M 126.66018,11.461704 98.235416,2.5040132" />
</svg>
