<?xml version="1.0" encoding="UTF-8"?>
<svg enable-background="new 0 0 1024 1024" version="1.1" viewBox="0 0 16 16" xml:space="preserve" xmlns="http://www.w3.org/2000/svg"><rect width="16" height="16" fill="#234" stroke-width=".015625"/><path d="m4.9922 4.4984v6.9625c0 0.02656-0.028125 0.04063-0.05625 0.04063l-0.9375 0.04062c0 0.27031 0 0.67812-0.014063 0.96094h3.4922c0-0.28281 0.014062-0.69219 0.014062-0.96094l-1.0094-0.040625 0.014062-2.4969c0.05625-0.014062 0.46094-0.026562 0.85312-0.026562 0.53281 0 0.8125 0.1625 1.0781 0.60781 0.37812 0.66094 1.1484 2.3125 1.5828 2.9328 0.22344 0 0.99531-0.01406 1.2609-0.01406 0.29375-0.01406 0.97813-0.01406 1.2312-0.01406 0-0.28281 0.01406-0.69219 0.01406-0.96094l-1.0344-0.054693c-0.16875-0.014062-0.27969-0.14844-0.61719-0.78281-0.68594-1.2953-1.0234-2.0641-1.6672-2.3469v-0.067188c1.0375-0.39062 1.8359-1.2281 1.8359-2.3875 0-0.91719-0.78438-1.8484-1.8359-2.0906-0.74219-0.18906-1.1766-0.20312-1.9891-0.20312-0.99531 0-2.3406 0.014063-3.1953 0.026563-0.014063 0.28281-0.014063 0.56719-0.028125 0.85zm1.5312 0.034375c0.084375-0.040625 0.54375-0.054687 0.90781-0.054687 1.1062 0 1.9188 0.6125 1.9188 1.7594 0 0.85-0.60312 1.7266-2.0312 1.7266-0.30781 0-0.75469 0-0.825-0.026562z" fill="#fffef8" stroke-width=".015625"/></svg>

